<svg xmlns="http://www.w3.org/2000/svg" width="58" height="40" viewBox="0 0 58 40">
    <g fill="#FE621D" fill-rule="evenodd">
        <path d="M2.217 15.584A2.216 2.216 0 0 0 0 17.8v4.434a2.216 2.216 0 0 0 4.433 0V17.8a2.216 2.216 0 0 0-2.216-2.216M20.139 13.247a2.216 2.216 0 0 0-2.217 2.217v8.865a2.217 2.217 0 1 0 4.433 0v-8.865a2.216 2.216 0 0 0-2.216-2.217M11.047 8.831a2.216 2.216 0 0 0-2.216 2.217V28.78a2.216 2.216 0 1 0 4.433 0V11.05a2.216 2.216 0 0 0-2.217-2.218M28.97 0a2.216 2.216 0 0 0-2.217 2.217V37.68a2.216 2.216 0 1 0 4.433 0V2.217A2.216 2.216 0 0 0 28.97 0M37.8 13.247a2.216 2.216 0 0 0-2.216 2.217v8.865a2.216 2.216 0 1 0 4.433 0v-8.865a2.216 2.216 0 0 0-2.217-2.217M46.632 8.831a2.216 2.216 0 0 0-2.216 2.217V28.78a2.216 2.216 0 1 0 4.432 0V11.05a2.216 2.216 0 0 0-2.216-2.218M55.464 15.584h-.001a2.217 2.217 0 0 0-2.216 2.216v4.434a2.217 2.217 0 0 0 2.216 2.216 2.217 2.217 0 0 0 2.216-2.216V17.8a2.217 2.217 0 0 0-2.216-2.216"/>
    </g>
</svg>
