<svg width="50" height="50" viewBox="0 0 230 230" fill="none" xmlns="http://www.w3.org/2000/svg">
<path d="M81.9496 142.794H69.9907L75.9695 123.115L81.9496 142.794Z" fill="#E4067E"/>
<path fill-rule="evenodd" clip-rule="evenodd" d="M230 0H0V230H18.22V185.971H2V169.861H52.6554V185.971H36.5313V230H56.8726V169.861H102.728V185.971H75.1781V192.004H102.093V208.113H75.1781V214.791H102.728V230H126.708C114.239 225.706 105.815 214.817 105.815 200.431C105.815 181.571 120.135 168.857 139.071 168.857C154.931 168.857 162.9 178.194 166.537 186.609L150.765 194.015C149.224 189.262 144.507 185.149 139.073 185.149H139.071C130.285 185.149 124.396 191.924 124.396 200.434C124.396 208.944 130.285 215.714 139.071 215.714C144.505 215.714 149.222 211.594 150.763 206.838L166.535 214.152C163.984 220.037 159.06 226.736 150.542 230H169.726V169.861H188.034V191.457H209.695V169.861H228V230H230V0ZM2 121.106H18.22V166.039H36.5313V121.106H52.6554V105H2V121.106ZM64.4571 105L42.1696 166.04H62.9141L65.0919 158.901H86.8412L89.0198 166.04H109.773L87.4761 105H64.4571ZM131.397 149.935H154.319L154.313 166.039H113.085V105H131.397V149.935Z" fill="#E4067E"/>
<path d="M209.695 230V207.567H188.034V230H209.695Z" fill="#E4067E"/>
</svg>
